<svg width="40" height="40" viewBox="0 0 40 40" fill="none" xmlns="http://www.w3.org/2000/svg">
<path fill-rule="evenodd" clip-rule="evenodd" d="M18.1875 36.6875C18.1875 37.3008 18.4311 37.889 18.8648 38.3227C19.2985 38.7564 19.8867 39 20.5 39C21.1133 39 21.7015 38.7564 22.1352 38.3227C22.5689 37.889 22.8125 37.3008 22.8125 36.6875V22.8125H36.6875C37.3008 22.8125 37.889 22.5689 38.3227 22.1352C38.7564 21.7015 39 21.1133 39 20.5C39 19.8867 38.7564 19.2985 38.3227 18.8648C37.889 18.4311 37.3008 18.1875 36.6875 18.1875H22.8125V4.3125C22.8125 3.69919 22.5689 3.11099 22.1352 2.67732C21.7015 2.24364 21.1133 2 20.5 2C19.8867 2 19.2985 2.24364 18.8648 2.67732C18.4311 3.11099 18.1875 3.69919 18.1875 4.3125V18.1875H4.3125C3.69919 18.1875 3.11099 18.4311 2.67732 18.8648C2.24364 19.2985 2 19.8867 2 20.5C2 21.1133 2.24364 21.7015 2.67732 22.1352C3.11099 22.5689 3.69919 22.8125 4.3125 22.8125H18.1875V36.6875Z" fill="white"/>
</svg>
