<svg width="40" height="40" viewBox="0 0 40 40" fill="none" xmlns="http://www.w3.org/2000/svg">
<path d="M31 3.78571C31 3.04576 30.71 2.33845 30.1943 1.81613C29.1201 0.727958 27.3799 0.727958 26.3057 1.81613L9.80567 18.5304C9.29004 19.0527 9 19.76 9 20.5C9 21.24 9.29004 21.9473 9.80567 22.4696L26.3057 39.1839C27.3799 40.272 29.1201 40.272 30.1943 39.1839C30.71 38.6616 31 37.9542 31 37.2143C31 36.4743 30.71 35.767 30.1943 35.2447L15.6387 20.5L30.1943 5.7553C30.71 5.23298 31 4.52567 31 3.78571Z" fill="white"/>
<path d="M31 3.78571C31 3.04576 30.71 2.33845 30.1943 1.81613C29.1201 0.727958 27.3799 0.727958 26.3057 1.81613L9.80567 18.5304C9.29004 19.0527 9 19.76 9 20.5C9 21.24 9.29004 21.9473 9.80567 22.4696L26.3057 39.1839C27.3799 40.272 29.1201 40.272 30.1943 39.1839C30.71 38.6616 31 37.9542 31 37.2143C31 36.4743 30.71 35.767 30.1943 35.2447L15.6387 20.5L30.1943 5.7553C30.71 5.23298 31 4.52567 31 3.78571Z" stroke="black"/>
</svg>
