<svg width="24" height="24" viewBox="0 0 24 24" fill="none" xmlns="http://www.w3.org/2000/svg">
<path d="M2.39999 8.20001H22.2M6.79999 1.20001V3.53335M17.8 1.20001V3.53335M5.69999 11.7H10.1V16.3667H5.69999V11.7ZM5.91999 22.2H18.68C19.9121 22.2 20.5282 22.2 20.9988 21.9457C21.4127 21.722 21.7493 21.365 21.9602 20.926C22.2 20.4269 22.2 19.7735 22.2 18.4667V7.26668C22.2 5.95988 22.2 5.30649 21.9602 4.80737C21.7493 4.36832 21.4127 4.01136 20.9988 3.78767C20.5282 3.53335 19.9121 3.53335 18.68 3.53335H5.91999C4.68788 3.53335 4.07182 3.53335 3.60122 3.78767C3.18725 4.01136 2.8507 4.36832 2.63978 4.80737C2.39999 5.30649 2.39999 5.95988 2.39999 7.26668V18.4667C2.39999 19.7735 2.39999 20.4269 2.63978 20.926C2.8507 21.365 3.18725 21.722 3.60122 21.9457C4.07182 22.2 4.68787 22.2 5.91999 22.2Z" stroke="#6A7777" stroke-width="2" stroke-linecap="round" stroke-linejoin="round"/>
</svg>
