<svg width="40" height="40" viewBox="0 0 40 40" fill="none" xmlns="http://www.w3.org/2000/svg">
<path d="M4 13.6667H37M11.3333 2V5.88889M29.6667 2V5.88889M9.5 19.5H16.8333V27.2778H9.5V19.5ZM9.86667 37H31.1333C33.1868 37 34.2137 37 34.998 36.5761C35.6879 36.2034 36.2489 35.6084 36.6003 34.8767C37 34.0448 37 32.9557 37 30.7778V12.1111C37 9.93312 37 8.84413 36.6003 8.01226C36.2489 7.28051 35.6879 6.68559 34.998 6.31276C34.2137 5.88889 33.1868 5.88889 31.1333 5.88889H9.86667C7.81315 5.88889 6.78637 5.88889 6.00204 6.31276C5.3121 6.68559 4.75117 7.28051 4.39965 8.01226C4 8.84413 4 9.93312 4 12.1111V30.7778C4 32.9557 4 34.0448 4.39965 34.8767C4.75117 35.6084 5.3121 36.2034 6.00204 36.5761C6.78637 37 7.81313 37 9.86667 37Z" stroke="#6A7777" stroke-width="2" stroke-linecap="round" stroke-linejoin="round"/>
</svg>
