<svg width="256" height="256" viewBox="0 0 256 256" fill="none" xmlns="http://www.w3.org/2000/svg">
<path d="M239.342 22H16C15.4696 22 14.9609 21.7893 14.5858 21.4142C14.2107 21.0391 14 20.5304 14 20C14 19.4696 14.2107 18.9609 14.5858 18.5858C14.9609 18.2107 15.4696 18 16 18H239.342C239.873 18 240.382 18.2107 240.757 18.5858C241.132 18.9609 241.342 19.4696 241.342 20C241.342 20.5304 241.132 21.0391 240.757 21.4142C240.382 21.7893 239.873 22 239.342 22ZM240.757 43.2948C241.132 43.6699 241.342 44.1786 241.342 44.709C241.342 45.2394 241.132 45.7481 240.757 46.1232C240.382 46.4983 239.873 46.709 239.342 46.709H16C15.4696 46.709 14.9609 46.4983 14.5858 46.1232C14.2107 45.7481 14 45.2394 14 44.709C14 44.1786 14.2107 43.6699 14.5858 43.2948C14.9609 42.9197 15.4696 42.709 16 42.709H239.342C239.873 42.709 240.382 42.9197 240.757 43.2948ZM240.757 68.0038C241.132 68.3789 241.342 68.8876 241.342 69.418C241.342 69.9484 241.132 70.4571 240.757 70.8322C240.382 71.2073 239.873 71.418 239.342 71.418H16C15.4696 71.418 14.9609 71.2073 14.5858 70.8322C14.2107 70.4571 14 69.9484 14 69.418C14 68.8876 14.2107 68.3789 14.5858 68.0038C14.9609 67.6287 15.4696 67.418 16 67.418H239.342C239.873 67.418 240.382 67.6287 240.757 68.0038ZM240.757 92.7128C241.132 93.0879 241.342 93.5966 241.342 94.127C241.342 94.6574 241.132 95.1661 240.757 95.5412C240.382 95.9163 239.873 96.127 239.342 96.127H16C15.4696 96.127 14.9609 95.9163 14.5858 95.5412C14.2107 95.1661 14 94.6574 14 94.127C14 93.5966 14.2107 93.0879 14.5858 92.7128C14.9609 92.3377 15.4696 92.127 16 92.127H239.342C239.873 92.127 240.382 92.3377 240.757 92.7128ZM240.757 117.422C241.132 117.797 241.342 118.306 241.342 118.836C241.342 119.366 241.132 119.875 240.757 120.25C240.382 120.625 239.873 120.836 239.342 120.836H16C15.4696 120.836 14.9609 120.625 14.5858 120.25C14.2107 119.875 14 119.366 14 118.836C14 118.306 14.2107 117.797 14.5858 117.422C14.9609 117.047 15.4696 116.836 16 116.836H239.342C239.873 116.836 240.382 117.047 240.757 117.422ZM240.757 142.131C241.132 142.506 241.342 143.015 241.342 143.545C241.342 144.075 241.132 144.584 240.757 144.959C240.382 145.334 239.873 145.545 239.342 145.545H16C15.4696 145.545 14.9609 145.334 14.5858 144.959C14.2107 144.584 14 144.075 14 143.545C14 143.015 14.2107 142.506 14.5858 142.131C14.9609 141.756 15.4696 141.545 16 141.545H239.342C239.873 141.545 240.382 141.756 240.757 142.131ZM240.757 166.84C241.132 167.215 241.342 167.724 241.342 168.254C241.342 168.784 241.132 169.293 240.757 169.668C240.382 170.043 239.873 170.254 239.342 170.254H16C15.4696 170.254 14.9609 170.043 14.5858 169.668C14.2107 169.293 14 168.784 14 168.254C14 167.724 14.2107 167.215 14.5858 166.84C14.9609 166.465 15.4696 166.254 16 166.254H239.342C239.873 166.254 240.382 166.465 240.757 166.84ZM240.757 191.549C241.132 191.924 241.342 192.433 241.342 192.963C241.342 193.493 241.132 194.002 240.757 194.377C240.382 194.752 239.873 194.963 239.342 194.963H16C15.4696 194.963 14.9609 194.752 14.5858 194.377C14.2107 194.002 14 193.493 14 192.963C14 192.433 14.2107 191.924 14.5858 191.549C14.9609 191.174 15.4696 190.963 16 190.963H239.342C239.873 190.963 240.382 191.174 240.757 191.549ZM240.757 216.258C241.132 216.633 241.342 217.142 241.342 217.672C241.342 218.202 241.132 218.711 240.757 219.086C240.382 219.461 239.873 219.672 239.342 219.672H16C15.4696 219.672 14.9609 219.461 14.5858 219.086C14.2107 218.711 14 218.202 14 217.672C14 217.142 14.2107 216.633 14.5858 216.258C14.9609 215.883 15.4696 215.672 16 215.672H239.342C239.873 215.672 240.382 215.883 240.757 216.258Z" fill="#222222" stroke="black" stroke-width="0.5"/>
<path d="M91.98 241.709H41.3345V68.695C41.3345 62.513 46.346 57.5015 52.528 57.5015H80.7865C86.9685 57.5015 91.98 62.513 91.98 68.695V241.709Z" fill="#FF473E"/>
<path d="M159.215 241.709H108.57V148.094C108.57 141.912 113.581 136.9 119.763 136.9H148.022C154.204 136.9 159.215 141.912 159.215 148.094V241.709Z" fill="#00B1FF"/>
<path d="M226.451 241.709H175.806V40.455C175.806 34.273 180.818 29.2615 187 29.2615H215.258C221.44 29.2615 226.452 34.273 226.452 40.455V241.709H226.451Z" fill="#A97DFF"/>
<path d="M239.342 244.709H16C15.0717 244.709 14.1815 244.34 13.5251 243.684C12.8687 243.027 12.5 242.137 12.5 241.209V20C12.5 19.0717 12.8687 18.1815 13.5251 17.5251C14.1815 16.8687 15.0717 16.5 16 16.5C16.9283 16.5 17.8185 16.8687 18.4749 17.5251C19.1313 18.1815 19.5 19.0717 19.5 20V237.709H239.342C240.271 237.709 241.161 238.078 241.817 238.734C242.474 239.391 242.842 240.281 242.842 241.209C242.842 242.137 242.474 243.027 241.817 243.684C241.161 244.34 240.271 244.709 239.342 244.709Z" fill="#222222"/>
</svg>
