<svg width="40" height="40" viewBox="0 0 40 40" fill="none" xmlns="http://www.w3.org/2000/svg">
<path fill-rule="evenodd" clip-rule="evenodd" d="M37.5625 27.1242C37.5625 28.8614 35.7015 30.6866 33.9062 30.6866H24.1562L20.5 35.4364L16.8438 30.6866H7.09375C5.29853 30.6866 3.4375 28.8614 3.4375 27.1242V6.93731C3.4375 5.20006 5.29853 3.37493 7.09375 3.37493H33.9062C35.7015 3.37493 37.5625 5.20006 37.5625 6.93731V27.1242ZM33.5004 1H7.4996C3.91038 1 1 3.81547 1 7.28999V27.3462C1 30.8184 3.50453 33.0615 7.09375 33.0615H15.185L20.5 39L25.815 33.0615H33.9062C37.4955 33.0615 40 30.8184 40 27.3462V7.28999C40 3.81547 37.0896 1 33.5004 1Z" fill="#6A7777"/>
</svg>
