<svg width="24" height="24" viewBox="0 0 24 24" fill="none" xmlns="http://www.w3.org/2000/svg">
<g clip-path="url(#clip0_1562_17)">
<path fill-rule="evenodd" clip-rule="evenodd" d="M22.5375 16.2745C22.5375 17.3168 21.4209 18.4119 20.3438 18.4119H14.4938L12.3 21.2618L10.1063 18.4119H4.25626C3.17912 18.4119 2.06251 17.3168 2.06251 16.2745V4.16236C2.06251 3.12001 3.17912 2.02493 4.25626 2.02493H20.3438C21.4209 2.02493 22.5375 3.12001 22.5375 4.16236V16.2745ZM20.1002 0.599976H4.49977C2.34624 0.599976 0.600006 2.28926 0.600006 4.37397V16.4077C0.600006 18.491 2.10272 19.8369 4.25626 19.8369H9.11103L12.3 23.4L15.489 19.8369H20.3438C22.4973 19.8369 24 18.491 24 16.4077V4.37397C24 2.28926 22.2538 0.599976 20.1002 0.599976Z" fill="#6A7777"/>
</g>
<defs>
<clipPath id="clip0_1562_17">
<rect width="24" height="24" fill="white"/>
</clipPath>
</defs>
</svg>
