<svg width="51" height="42" viewBox="0 0 51 42" fill="none" xmlns="http://www.w3.org/2000/svg">
<path d="M19.955 23.305C19.0632 23.305 18.3397 22.5881 18.3397 21.6991C18.3397 20.8101 19.955 17.999 19.955 17.999C19.955 17.999 21.5703 20.812 21.5703 21.6991C21.5703 22.5865 20.8482 23.305 19.955 23.305ZM18.738 16.7563H16.8859V26.5642H13.6731V28.0727H15.5416V29.4598H1V28.0727H2.87015V12.5418H13.6747V25.1755H15.4876V16.0636L15.4959 15.3676H16.1835H19.4223L20.5068 16.7514L19.4042 17.6048L18.738 16.7563ZM11.2787 14.9459H5.26313V19.4054H11.2787V14.9459ZM26.524 18.1352C24.9331 18.9592 24.3142 20.9107 25.1455 22.4924C25.9768 24.0741 27.9417 24.6888 29.531 23.8648C31.1252 23.0391 31.7441 21.0909 30.9145 19.506C30.0848 17.9242 28.1199 17.3109 26.524 18.1352ZM29.7043 1H27.1547V7.65094H29.7043V1ZM27.1561 41H29.7056V34.3474H27.1561V41ZM43.3034 19.733V22.2668H50V19.733H43.3034ZM36.8402 9.55537L37.7419 10.4509L42.477 5.74815L41.5737 4.85262L36.8402 9.55537ZM36.8402 32.4444L41.5753 37.1471L42.477 36.2516L37.7436 31.5488L36.8402 32.4444Z" fill="#787878" fill-opacity="0.66"/>
<path d="M23.3218 32.7151L25.3011 24.616L27.5905 25.5533L23.3218 32.7151Z" fill="#686868"/>
<path d="M18.7173 41V33.7273H23.4474V34.8317H20.0348V36.8061H23.2024V37.9105H20.0348V39.8956H23.4759V41H18.7173Z" fill="#686868"/>
<path d="M18.7173 8V0.727273H23.3764V1.83168H20.0348V3.80611H23.0568V4.91051H20.0348V8H18.7173Z" fill="#686868"/>
</svg>
