<svg width="40" height="40" viewBox="0 0 40 40" fill="none" xmlns="http://www.w3.org/2000/svg">
<path d="M28 4H35V12" stroke="white" stroke-width="3" stroke-linecap="round" stroke-linejoin="round"/>
<path d="M33 24.0019V34.3125C33 34.7601 32.8156 35.1893 32.4874 35.5057C32.1592 35.8222 31.7141 36 31.25 36H6.75C6.28587 36 5.84075 35.8222 5.51256 35.5057C5.18437 35.1893 5 34.7601 5 34.3125V10.6875C5 10.2399 5.18437 9.81073 5.51256 9.49426C5.84075 9.17779 6.28587 9 6.75 9H17.4425" stroke="white" stroke-width="3" stroke-linecap="round" stroke-linejoin="round"/>
<path d="M33 24.0019V34.3125C33 34.7601 32.8156 35.1893 32.4874 35.5057C32.1592 35.8222 31.7141 36 31.25 36H6.75C6.28587 36 5.84075 35.8222 5.51256 35.5057C5.18437 35.1893 5 34.7601 5 34.3125V10.6875C5 10.2399 5.18437 9.81073 5.51256 9.49426C5.84075 9.17779 6.28587 9 6.75 9H17.4425" stroke="white" stroke-width="2" stroke-linecap="round" stroke-linejoin="round"/>
<path d="M19 21L35 4" stroke="white" stroke-width="3" stroke-linecap="round" stroke-linejoin="round"/>
</svg>
