<svg width="40" height="40" viewBox="0 0 40 40" fill="none" xmlns="http://www.w3.org/2000/svg">
<path d="M35.2308 15.8462V31.0769C35.2308 31.8415 34.6107 32.4615 33.8462 32.4615C33.0816 32.4615 32.4615 31.8415 32.4615 31.0769V25.5385C32.4615 23.2444 30.6017 21.3846 28.3077 21.3846H24.1538V4.76923C24.1538 3.23978 22.9141 2 21.3846 2H4.76923C3.23978 2 2 3.23978 2 4.76923V35.2308C2 36.7602 3.23978 38 4.76923 38H21.3846C22.9141 38 24.1538 36.7602 24.1538 35.2308V24.1538H28.3077C29.0723 24.1538 29.6923 24.7739 29.6923 25.5385V31.0769C29.6923 33.371 31.5521 35.2308 33.8462 35.2308C36.1402 35.2308 38 33.371 38 31.0769V13.0769C38 11.5475 36.7602 10.3077 35.2308 10.3077V6.12615C35.2158 5.37237 34.6002 4.76895 33.8462 4.76923C33.0663 4.78225 32.4444 5.42471 32.4574 6.2048C32.4579 6.23388 32.4593 6.26323 32.4615 6.29231V13.0769C32.4615 14.6064 33.7013 15.8462 35.2308 15.8462C36.7602 15.8462 38 14.6064 38 13.0769C38 11.5475 36.7602 10.3077 35.2308 10.3077M21.3846 17.2308C21.3846 17.9954 20.7646 18.6154 20 18.6154H6.15385C5.38926 18.6154 4.76923 17.9954 4.76923 17.2308V8.92308C4.76923 8.15849 5.38926 7.53846 6.15385 7.53846H20C20.7646 7.53846 21.3846 8.15849 21.3846 8.92308V17.2308Z" fill="#6A7777"/>
</svg>
