<svg width="24" height="24" viewBox="0 0 24 24" fill="none" xmlns="http://www.w3.org/2000/svg">
<path d="M11.2011 13.8805C11.2011 11.5604 9.09244 9.67288 6.50049 9.67288C3.90859 9.67288 1.8 11.5604 1.8 13.8805C1.8 14.5604 1.98123 15.203 2.30255 15.7719L6.50049 23.5212L10.6992 15.7708C11.02 15.2021 11.2011 14.5599 11.2011 13.8805ZM6.50049 16.209C5.06618 16.209 3.89921 15.1644 3.89921 13.8805C3.89921 12.5966 5.06618 11.552 6.50049 11.552C7.93485 11.552 9.10176 12.5966 9.10176 13.8805C9.10176 15.1644 7.93485 16.209 6.50049 16.209Z" fill="#6A7777"/>
<path d="M19.8198 0.600006C18.5073 0.600006 17.4395 1.55579 17.4395 2.7306C17.4395 3.07489 17.5313 3.40029 17.694 3.68844L19.8198 7.61245L21.9458 3.68782C22.1083 3.39986 22.2 3.07465 22.2 2.73065C22.2 1.55579 21.1321 0.600006 19.8198 0.600006ZM19.8198 3.90971C19.0934 3.90971 18.5025 3.38078 18.5025 2.7306C18.5025 2.08047 19.0934 1.5515 19.8198 1.5515C20.546 1.5515 21.1369 2.08047 21.1369 2.7306C21.1369 3.38078 20.546 3.90971 19.8198 3.90971Z" fill="#6A7777"/>
<path d="M17.7467 14.4224C17.6501 14.0159 17.5247 13.6175 17.3667 13.2264C17.1549 12.7023 16.901 12.1902 16.7064 11.6601C16.3428 10.6694 16.9701 9.84258 17.0879 9.69228C17.2945 9.42913 17.536 9.18763 17.7908 8.96145C18.2814 8.52605 18.8225 8.13683 19.3885 7.77838C19.3184 7.68112 19.2505 7.58282 19.1858 7.4827C18.3716 7.76841 14.1846 9.07831 14.2867 11.9721C14.3072 12.5522 14.5576 13.1043 14.7119 13.6667C14.7862 13.9376 14.8507 14.211 14.8902 14.4879C14.9072 14.6126 14.9176 14.738 14.929 14.8633C14.9293 14.8624 14.9292 14.8617 14.9286 14.8612C14.9289 14.8648 14.9393 15.2583 14.9198 15.4288C14.8587 15.9625 14.7707 16.5017 14.5193 16.9913C14.2856 17.4465 13.9329 17.8423 13.4966 18.1552C12.4993 18.8704 11.1779 19.1563 9.93107 19.2713C9.87171 19.2769 9.81235 19.2816 9.75299 19.2863L7.52674 23.3956C8.62518 23.3345 9.7208 23.1999 10.7897 22.9644C12.0477 22.6873 13.2736 22.2686 14.372 21.6481C15.4695 21.0282 16.4133 20.1895 17.0416 19.1685C17.6989 18.1005 17.9622 16.8772 17.9062 15.6649C17.8871 15.2509 17.8432 14.8288 17.7467 14.4224Z" fill="#6A7777"/>
</svg>
