<svg width="40" height="40" viewBox="0 0 40 40" fill="none" xmlns="http://www.w3.org/2000/svg">
<path d="M7.72698 11.7452V36.2C7.72698 36.6774 7.90417 37.1352 8.21958 37.4728C8.53498 37.8104 8.96276 38 9.40881 38H29.5908C30.0369 38 30.4647 37.8104 30.7801 37.4728C31.0955 37.1352 31.2727 36.6774 31.2727 36.2V5.6H34.6363V18.2C34.6363 18.6774 34.8135 19.1352 35.1289 19.4728C35.4443 19.8104 35.8721 20 36.3182 20C36.7642 20 37.192 19.8104 37.5074 19.4728C37.8228 19.1352 38 18.6774 38 18.2V5.6C38 4.64522 37.6456 3.72955 37.0148 3.05442C36.384 2.37928 35.5284 2 34.6363 2H2.68148C2.34889 2.00008 2.0238 2.10569 1.74729 2.30348C1.47078 2.50127 1.25527 2.78236 1.128 3.11122C1.00074 3.44008 0.967433 3.80194 1.0323 4.15106C1.09716 4.50017 1.25728 4.82087 1.49242 5.0726L7.72698 11.7452ZM27.909 5.6V34.4H11.0906V30.8H16.1362C16.5822 30.8 17.01 30.6104 17.3254 30.2728C17.6408 29.9352 17.818 29.4774 17.818 29C17.818 28.5226 17.6408 28.0648 17.3254 27.7272C17.01 27.3896 16.5822 27.2 16.1362 27.2H11.0906V23.6H16.1362C16.5822 23.6 17.01 23.4104 17.3254 23.0728C17.6408 22.7352 17.818 22.2774 17.818 21.8C17.818 21.3226 17.6408 20.8648 17.3254 20.5272C17.01 20.1896 16.5822 20 16.1362 20H11.0906V16.4H16.1362C16.5822 16.4 17.01 16.2104 17.3254 15.8728C17.6408 15.5352 17.818 15.0774 17.818 14.6C17.818 14.1226 17.6408 13.6648 17.3254 13.3272C17.01 12.9896 16.5822 12.8 16.1362 12.8H11.0906V11C11.0906 10.5226 10.9133 10.0649 10.5979 9.7274L6.74142 5.6H27.909Z" fill="#6A7777"/>
</svg>
