<svg width="24" height="24" viewBox="0 0 24 24" fill="none" xmlns="http://www.w3.org/2000/svg">
<path d="M4.63619 7.04713V21.72C4.63619 22.0064 4.7425 22.2811 4.93175 22.4837C5.12099 22.6862 5.37766 22.8 5.64529 22.8H17.7545C18.0221 22.8 18.2788 22.6862 18.468 22.4837C18.6573 22.2811 18.7636 22.0064 18.7636 21.72V3.36001H20.7818V10.92C20.7818 11.2064 20.8881 11.4811 21.0774 11.6837C21.2666 11.8862 21.5233 12 21.7909 12C22.0585 12 22.3152 11.8862 22.5044 11.6837C22.6937 11.4811 22.8 11.2064 22.8 10.92V3.36001C22.8 2.78714 22.5874 2.23774 22.2089 1.83266C21.8304 1.42758 21.3171 1.20001 20.7818 1.20001H1.60888C1.40933 1.20006 1.21428 1.26342 1.04837 1.3821C0.882465 1.50077 0.753159 1.66943 0.6768 1.86675C0.600441 2.06406 0.580458 2.28118 0.619377 2.49065C0.658295 2.70012 0.754368 2.89253 0.89545 3.04357L4.63619 7.04713ZM16.7454 3.36001V20.64H6.65439V18.48H9.68169C9.94932 18.48 10.206 18.3662 10.3952 18.1637C10.5845 17.9611 10.6908 17.6864 10.6908 17.4C10.6908 17.1136 10.5845 16.8389 10.3952 16.6363C10.206 16.4338 9.94932 16.32 9.68169 16.32H6.65439V14.16H9.68169C9.94932 14.16 10.206 14.0462 10.3952 13.8437C10.5845 13.6411 10.6908 13.3664 10.6908 13.08C10.6908 12.7936 10.5845 12.5189 10.3952 12.3163C10.206 12.1138 9.94932 12 9.68169 12H6.65439V9.84001H9.68169C9.94932 9.84001 10.206 9.72623 10.3952 9.52369C10.5845 9.32115 10.6908 9.04645 10.6908 8.76001C10.6908 8.47358 10.5845 8.19888 10.3952 7.99634C10.206 7.7938 9.94932 7.68001 9.68169 7.68001H6.65439V6.60001C6.65433 6.3136 6.54798 6.03894 6.35872 5.83645L4.04485 3.36001H16.7454Z" fill="#6A7777"/>
</svg>
