<svg width="40" height="40" viewBox="0 0 40 40" fill="none" xmlns="http://www.w3.org/2000/svg">
<path d="M7.4 26C4.06754 27.2706 2 29.041 2 30.9994C2 34.8658 10.0589 38 20 38C29.9412 38 38 34.8658 38 30.9994C38 29.041 35.9324 27.2706 32.6 26M20 14H20.02M32 14C32 22.1274 23 26 20 32C17 26 8 22.1274 8 14C8 7.37258 13.3726 2 20 2C26.6274 2 32 7.37258 32 14ZM22 14C22 15.1046 21.1046 16 20 16C18.8954 16 18 15.1046 18 14C18 12.8954 18.8954 12 20 12C21.1046 12 22 12.8954 22 14Z" stroke="#6A7777" stroke-width="2" stroke-linecap="round" stroke-linejoin="round"/>
</svg>
