<svg width="24" height="24" viewBox="0 0 24 24" fill="none" xmlns="http://www.w3.org/2000/svg">
<g clip-path="url(#clip0_1562_8)">
<path d="M4.44 15.6C2.44052 16.3624 1.2 17.4246 1.2 18.5997C1.2 20.9195 6.03532 22.8 12 22.8C17.9647 22.8 22.8 20.9195 22.8 18.5997C22.8 17.4246 21.5594 16.3624 19.56 15.6M12 8.40001H12.012M19.2 8.40001C19.2 13.2765 13.8 15.6 12 19.2C10.2 15.6 4.8 13.2765 4.8 8.40001C4.8 4.42356 8.02354 1.20001 12 1.20001C15.9764 1.20001 19.2 4.42356 19.2 8.40001ZM13.2 8.40001C13.2 9.06275 12.6628 9.60001 12 9.60001C11.3372 9.60001 10.8 9.06275 10.8 8.40001C10.8 7.73728 11.3372 7.20001 12 7.20001C12.6628 7.20001 13.2 7.73728 13.2 8.40001Z" stroke="#6A7777" stroke-width="2" stroke-linecap="round" stroke-linejoin="round"/>
</g>
<defs>
<clipPath id="clip0_1562_8">
<rect width="24" height="24" fill="white"/>
</clipPath>
</defs>
</svg>
