<svg width="24" height="24" viewBox="0 0 24 24" fill="none" xmlns="http://www.w3.org/2000/svg">
<g clip-path="url(#clip0_1607_898)">
<path d="M372.847 4.74129C360.593 -0.333373 345.063 -0.333374 314 -0.333374C282.937 -0.333374 267.407 -0.333373 255.153 4.74129C238.819 11.5076 225.841 24.486 219.074 40.821C215.986 48.278 214.777 56.95 214.304 69.5996C213.609 88.1893 204.075 105.396 187.965 114.698C171.855 123.999 152.186 123.651 135.74 114.959C124.548 109.043 116.434 105.754 108.431 104.701C90.9014 102.393 73.1727 107.143 59.1454 117.907C48.6247 125.979 40.8591 139.43 25.3277 166.331C9.79641 193.232 2.03074 206.683 0.299741 219.83C-2.00793 237.36 2.7424 255.089 13.5061 269.117C18.4187 275.52 25.3234 280.9 36.0397 287.633C51.7934 297.533 61.9297 314.397 61.9287 333C61.9277 351.603 51.7917 368.463 36.0394 378.36C25.3217 385.097 18.4161 390.48 13.5027 396.883C2.73907 410.91 -2.01125 428.637 0.296745 446.167C2.02741 459.313 9.79308 472.767 25.3244 499.667C40.8561 526.567 48.6217 540.02 59.1421 548.09C73.1694 558.853 90.8981 563.603 108.428 561.297C116.43 560.243 124.544 556.953 135.735 551.04C152.182 542.347 171.852 542 187.963 551.3C204.075 560.603 213.609 577.81 214.304 596.403C214.777 609.05 215.986 617.723 219.074 625.18C225.841 641.513 238.819 654.493 255.153 661.26C267.407 666.333 282.937 666.333 314 666.333C345.063 666.333 360.593 666.333 372.847 661.26C389.18 654.493 402.16 641.513 408.923 625.18C412.013 617.723 413.223 609.05 413.697 596.4C414.39 577.81 423.923 560.603 440.033 551.3C456.143 541.997 475.813 542.347 492.263 551.04C503.453 556.953 511.567 560.24 519.567 561.293C537.097 563.603 554.827 558.853 568.853 548.09C579.373 540.017 587.14 526.567 602.67 499.663C618.203 472.763 625.97 459.313 627.7 446.167C630.007 428.637 625.257 410.907 614.493 396.88C609.58 390.477 602.673 385.093 591.957 378.36C576.207 368.463 566.07 351.6 566.07 332.997C566.07 314.393 576.207 297.537 591.957 287.64C602.677 280.903 609.583 275.523 614.497 269.117C625.26 255.091 630.01 237.362 627.703 219.832C625.973 206.685 618.207 193.234 602.673 166.333C587.143 139.432 579.377 125.982 568.857 117.909C554.83 107.145 537.1 102.395 519.57 104.703C511.57 105.756 503.457 109.045 492.263 114.96C475.817 123.653 456.147 124.001 440.037 114.699C423.923 105.397 414.39 88.1886 413.697 69.598C413.223 56.9493 412.013 48.2776 408.923 40.821C402.16 24.486 389.18 11.5076 372.847 4.74129Z" stroke="#1C274C" stroke-width="50"/>
<path d="M14.5882 17.75V20.6667C14.5882 21.9554 13.4822 23 12.1176 23H3.47059C2.10612 23 1 21.9554 1 20.6667V4.33333C1 3.04467 2.10612 2 3.47059 2H12.1176C13.4822 2 14.5882 3.04467 14.5882 4.33333V7.90625M9.64706 12.5H22M22 12.5L18.9118 9.58333M22 12.5L18.9118 15.4167" stroke="#6A7777" stroke-width="2.1" stroke-linecap="round" stroke-linejoin="round"/>
</g>
<defs>
<clipPath id="clip0_1607_898">
<rect width="24" height="24" fill="white"/>
</clipPath>
</defs>
</svg>
