<svg width="24" height="24" viewBox="0 0 24 24" fill="none" xmlns="http://www.w3.org/2000/svg">
<path fill-rule="evenodd" clip-rule="evenodd" d="M11.942 1.28472e-06H12.058C13.061 -3.22037e-05 13.8973 -5.44925e-05 14.5613 0.0892032C15.2621 0.183428 15.8948 0.390688 16.4032 0.899119C16.9116 1.40755 17.1189 2.04026 17.2131 2.74105C17.2791 3.23176 17.2963 3.81666 17.3008 4.49339C18.0247 4.51662 18.67 4.55895 19.2435 4.63606C20.5523 4.81201 21.6116 5.18275 22.447 6.01813C23.2823 6.85352 23.6531 7.91281 23.8291 9.22156C24 10.4932 24 12.1181 24 14.1696V14.2955C24 16.347 24 17.9719 23.8291 19.2435C23.6531 20.5523 23.2823 21.6116 22.447 22.447C21.6116 23.2823 20.5523 23.6531 19.2435 23.8291C17.9719 24 16.347 24 14.2955 24H9.70447C7.65302 24 6.02812 24 4.75644 23.8291C3.4477 23.6531 2.3884 23.2823 1.55301 22.447C0.717634 21.6116 0.346895 20.5523 0.170947 19.2435C-3.30515e-05 17.9719 -2.18197e-05 16.347 5.059e-07 14.2955V14.1696C-2.18197e-05 12.1181 -3.30515e-05 10.4932 0.170947 9.22156C0.346895 7.91281 0.717634 6.85352 1.55301 6.01813C2.3884 5.18275 3.4477 4.81201 4.75644 4.63606C5.32995 4.55895 5.97531 4.51662 6.69924 4.49339C6.7037 3.81666 6.7209 3.23176 6.78688 2.74105C6.8811 2.04026 7.08836 1.40755 7.59679 0.899119C8.10523 0.390688 8.73793 0.183428 9.43872 0.0892032C10.1027 -5.44925e-05 10.939 -3.22037e-05 11.942 1.28472e-06ZM8.3741 4.4671C8.7962 4.46511 9.23937 4.46512 9.70446 4.46512H14.2955C14.7607 4.46512 15.2038 4.46511 15.6259 4.4671C15.6212 3.83047 15.6056 3.35023 15.5537 2.96416C15.4844 2.44904 15.3647 2.22859 15.2192 2.08311C15.0738 1.93764 14.8533 1.81795 14.3382 1.7487C13.799 1.67621 13.0761 1.67442 12 1.67442C10.9239 1.67442 10.201 1.67621 9.66183 1.7487C9.14671 1.81795 8.92625 1.93764 8.78079 2.08311C8.63531 2.22859 8.51562 2.44904 8.44637 2.96416C8.39446 3.35023 8.3788 3.83047 8.3741 4.4671ZM4.97955 6.29555C3.85648 6.44655 3.20943 6.72971 2.73701 7.20213C2.26458 7.67454 1.98142 8.32159 1.83043 9.44467C1.67619 10.5918 1.67442 12.104 1.67442 14.2326C1.67442 16.3611 1.67619 17.8733 1.83043 19.0205C1.98142 20.1435 2.26458 20.7906 2.73701 21.263C3.20943 21.7354 3.85648 22.0186 4.97955 22.1695C6.12671 22.3238 7.6389 22.3256 9.76744 22.3256H14.2326C16.3611 22.3256 17.8733 22.3238 19.0205 22.1695C20.1435 22.0186 20.7906 21.7354 21.263 21.263C21.7354 20.7906 22.0186 20.1435 22.1695 19.0205C22.3238 17.8733 22.3256 16.3611 22.3256 14.2326C22.3256 12.104 22.3238 10.5918 22.1695 9.44467C22.0186 8.32159 21.7354 7.67454 21.263 7.20213C20.7906 6.72971 20.1435 6.44655 19.0205 6.29555C17.8733 6.14132 16.3611 6.13954 14.2326 6.13954H9.76744C7.6389 6.13954 6.12671 6.14132 4.97955 6.29555ZM12 8.93023C12.4624 8.93023 12.8372 9.30507 12.8372 9.76744V9.77883C14.0526 10.085 15.0698 11.0433 15.0698 12.3721C15.0698 12.8344 14.6949 13.2093 14.2326 13.2093C13.7702 13.2093 13.3953 12.8344 13.3953 12.3721C13.3953 11.9434 12.92 11.3489 12 11.3489C11.08 11.3489 10.6047 11.9434 10.6047 12.3721C10.6047 12.8008 11.08 13.3953 12 13.3953C13.5459 13.3953 15.0698 14.4668 15.0698 16.0931C15.0698 17.4218 14.0526 18.3801 12.8372 18.6863V18.6977C12.8372 19.16 12.4624 19.5349 12 19.5349C11.5376 19.5349 11.1628 19.16 11.1628 18.6977V18.6863C9.94739 18.3801 8.93023 17.4218 8.93023 16.0931C8.93023 15.6307 9.30507 15.2559 9.76744 15.2559C10.2298 15.2559 10.6047 15.6307 10.6047 16.0931C10.6047 16.5217 11.08 17.1162 12 17.1162C12.92 17.1162 13.3953 16.5217 13.3953 16.0931C13.3953 15.6643 12.92 15.0698 12 15.0698C10.4541 15.0698 8.93023 13.9985 8.93023 12.3721C8.93023 11.0433 9.94739 10.085 11.1628 9.77883V9.76744C11.1628 9.30507 11.5376 8.93023 12 8.93023Z" fill="#6A7777"/>
</svg>
