<svg width="40" height="40" viewBox="0 0 40 40" fill="none" xmlns="http://www.w3.org/2000/svg">
<path fill-rule="evenodd" clip-rule="evenodd" d="M19.9033 2.14119e-06H20.0967C21.7684 -5.36728e-05 23.1622 -9.08208e-05 24.2688 0.148672C25.4368 0.305714 26.4913 0.651146 27.3386 1.49853C28.186 2.34592 28.5315 3.40043 28.6886 4.56841C28.7985 5.38627 28.8272 6.3611 28.8346 7.48899C30.0411 7.5277 31.1167 7.59825 32.0726 7.72677C34.2538 8.02002 36.0194 8.63792 37.4117 10.0302C38.8039 11.4225 39.4218 13.188 39.7152 15.3693C40 17.4887 40 20.1968 40 23.616V23.8259C40 27.245 40 29.9531 39.7152 32.0726C39.4218 34.2538 38.8039 36.0194 37.4117 37.4117C36.0194 38.8039 34.2538 39.4218 32.0726 39.7152C29.9531 40 27.245 40 23.8259 40H16.1741C12.755 40 10.0469 40 7.92741 39.7152C5.74616 39.4218 3.98067 38.8039 2.58835 37.4117C1.19606 36.0194 0.578159 34.2538 0.284912 32.0726C-5.50858e-05 29.9531 -3.63661e-05 27.245 8.43167e-07 23.8259V23.616C-3.63661e-05 20.1968 -5.50858e-05 17.4887 0.284912 15.3693C0.578159 13.188 1.19606 11.4225 2.58835 10.0302C3.98067 8.63792 5.74616 8.02002 7.92741 7.72677C8.88326 7.59825 9.95885 7.5277 11.1654 7.48899C11.1728 6.3611 11.2015 5.38627 11.3115 4.56841C11.4685 3.40043 11.8139 2.34592 12.6613 1.49853C13.5087 0.651146 14.5632 0.305714 15.7312 0.148672C16.8378 -9.08208e-05 18.2316 -5.36728e-05 19.9033 2.14119e-06ZM13.9568 7.44517C14.6603 7.44184 15.399 7.44186 16.1741 7.44186H23.8259C24.6011 7.44186 25.3397 7.44184 26.0432 7.44517C26.0354 6.38411 26.0093 5.58372 25.9228 4.94026C25.8073 4.08173 25.6078 3.71431 25.3654 3.47185C25.123 3.2294 24.7555 3.02992 23.8969 2.91449C22.9983 2.79368 21.7935 2.7907 20 2.7907C18.2065 2.7907 17.0017 2.79368 16.1031 2.91449C15.2445 3.02992 14.8771 3.2294 14.6346 3.47185C14.3922 3.71431 14.1927 4.08173 14.0773 4.94026C13.9908 5.58372 13.9647 6.38411 13.9568 7.44517ZM8.29926 10.4926C6.42746 10.7442 5.34904 11.2162 4.56168 12.0036C3.77431 12.7909 3.30236 13.8693 3.05072 15.7411C2.79366 17.653 2.7907 20.1734 2.7907 23.7209C2.7907 27.2685 2.79366 29.7888 3.05072 31.7008C3.30236 33.5725 3.77431 34.651 4.56168 35.4383C5.34904 36.2257 6.42746 36.6977 8.29926 36.9492C10.2112 37.2063 12.7315 37.2093 16.2791 37.2093H23.7209C27.2685 37.2093 29.7888 37.2063 31.7008 36.9492C33.5725 36.6977 34.651 36.2257 35.4383 35.4383C36.2257 34.651 36.6977 33.5725 36.9492 31.7008C37.2063 29.7888 37.2093 27.2685 37.2093 23.7209C37.2093 20.1734 37.2063 17.653 36.9492 15.7411C36.6977 13.8693 36.2257 12.7909 35.4383 12.0036C34.651 11.2162 33.5725 10.7442 31.7008 10.4926C29.7888 10.2355 27.2685 10.2326 23.7209 10.2326H16.2791C12.7315 10.2326 10.2112 10.2355 8.29926 10.4926ZM20 14.8837C20.7706 14.8837 21.3953 15.5084 21.3953 16.2791V16.298C23.421 16.8084 25.1163 18.4056 25.1163 20.6201C25.1163 21.3907 24.4915 22.0154 23.7209 22.0154C22.9503 22.0154 22.3256 21.3907 22.3256 20.6201C22.3256 19.9057 21.5334 18.9148 20 18.9148C18.4666 18.9148 17.6744 19.9057 17.6744 20.6201C17.6744 21.3347 18.4666 22.3256 20 22.3256C22.5766 22.3256 25.1163 24.1113 25.1163 26.8218C25.1163 29.0363 23.421 30.6335 21.3953 31.1438V31.1628C21.3953 31.9334 20.7706 32.5581 20 32.5581C19.2294 32.5581 18.6047 31.9334 18.6047 31.1628V31.1438C16.579 30.6335 14.8837 29.0363 14.8837 26.8218C14.8837 26.0512 15.5084 25.4264 16.2791 25.4264C17.0497 25.4264 17.6744 26.0512 17.6744 26.8218C17.6744 27.5362 18.4666 28.5271 20 28.5271C21.5334 28.5271 22.3256 27.5362 22.3256 26.8218C22.3256 26.1072 21.5334 25.1163 20 25.1163C17.4234 25.1163 14.8837 23.3308 14.8837 20.6201C14.8837 18.4056 16.579 16.8084 18.6047 16.298V16.2791C18.6047 15.5084 19.2294 14.8837 20 14.8837Z" fill="#6A7777"/>
</svg>
