<svg width="24" height="24" viewBox="0 0 24 24" fill="none" xmlns="http://www.w3.org/2000/svg">
<g clip-path="url(#clip0_1605_879)">
<path d="M372.847 4.74129C360.593 -0.333373 345.063 -0.333374 314 -0.333374C282.937 -0.333374 267.407 -0.333373 255.153 4.74129C238.819 11.5076 225.841 24.486 219.074 40.821C215.986 48.278 214.777 56.95 214.304 69.5996C213.609 88.1893 204.075 105.396 187.965 114.698C171.855 123.999 152.186 123.651 135.74 114.959C124.548 109.043 116.434 105.754 108.431 104.701C90.9014 102.393 73.1727 107.143 59.1454 117.907C48.6247 125.979 40.8591 139.43 25.3277 166.331C9.79641 193.232 2.03074 206.683 0.299741 219.83C-2.00793 237.36 2.7424 255.089 13.5061 269.117C18.4187 275.52 25.3234 280.9 36.0397 287.633C51.7934 297.533 61.9297 314.397 61.9287 333C61.9277 351.603 51.7917 368.463 36.0394 378.36C25.3217 385.097 18.4161 390.48 13.5027 396.883C2.73907 410.91 -2.01125 428.637 0.296745 446.167C2.02741 459.313 9.79308 472.767 25.3244 499.667C40.8561 526.567 48.6217 540.02 59.1421 548.09C73.1694 558.853 90.8981 563.603 108.428 561.297C116.43 560.243 124.544 556.953 135.735 551.04C152.182 542.347 171.852 542 187.963 551.3C204.075 560.603 213.609 577.81 214.304 596.403C214.777 609.05 215.986 617.723 219.074 625.18C225.841 641.513 238.819 654.493 255.153 661.26C267.407 666.333 282.937 666.333 314 666.333C345.063 666.333 360.593 666.333 372.847 661.26C389.18 654.493 402.16 641.513 408.923 625.18C412.013 617.723 413.223 609.05 413.697 596.4C414.39 577.81 423.923 560.603 440.033 551.3C456.143 541.997 475.813 542.347 492.263 551.04C503.453 556.953 511.567 560.24 519.567 561.293C537.097 563.603 554.827 558.853 568.853 548.09C579.373 540.017 587.14 526.567 602.67 499.663C618.203 472.763 625.97 459.313 627.7 446.167C630.007 428.637 625.257 410.907 614.493 396.88C609.58 390.477 602.673 385.093 591.957 378.36C576.207 368.463 566.07 351.6 566.07 332.997C566.07 314.393 576.207 297.537 591.957 287.64C602.677 280.903 609.583 275.523 614.497 269.117C625.26 255.091 630.01 237.362 627.703 219.832C625.973 206.685 618.207 193.234 602.673 166.333C587.143 139.432 579.377 125.982 568.857 117.909C554.83 107.145 537.1 102.395 519.57 104.703C511.57 105.756 503.457 109.045 492.263 114.96C475.817 123.653 456.147 124.001 440.037 114.699C423.923 105.397 414.39 88.1886 413.697 69.598C413.223 56.9493 412.013 48.2776 408.923 40.821C402.16 24.486 389.18 11.5076 372.847 4.74129Z" stroke="#1C274C" stroke-width="50"/>
<path fill-rule="evenodd" clip-rule="evenodd" d="M10.2 0L9.24217 0.712653L8.43672 3.39749L5.96868 2.06855L4.78747 2.24191L2.24188 4.78749L2.06852 5.96869L3.39747 8.43673L0.712653 9.24217L0 10.2V13.8L0.712653 14.7579L3.39748 15.5633L2.06856 18.0313L2.24192 19.2125L4.78751 21.7581L5.96871 21.9315L8.43672 20.6025L9.24217 23.2873L10.2 24H13.8L14.7579 23.2873L15.5633 20.6025L18.0313 21.9315L19.2125 21.758L21.7581 19.2125L21.9315 18.0313L20.6025 15.5632L23.2873 14.7579L24 13.8V10.2L23.2873 9.24217L20.6025 8.43672L21.9315 5.96872L21.7581 4.78751L19.2125 2.24192L18.0313 2.06856L15.5633 3.39749L14.7579 0.712653L13.8 0H10.2ZM9.95893 5.28379L10.944 2H13.056L14.0411 5.28379L14.5004 5.45947C14.6205 5.50544 14.7391 5.55463 14.856 5.60693L15.3052 5.80797L18.3244 4.18224L19.8177 5.67561L18.192 8.69481L18.3931 9.14404C18.4453 9.26093 18.4945 9.37947 18.5405 9.4996L18.7163 9.95893L22 10.944V13.056L18.7163 14.0411L18.5405 14.5004C18.4945 14.6205 18.4453 14.7391 18.3931 14.8559L18.192 15.3052L19.8177 18.3244L18.3244 19.8177L15.3052 18.192L14.856 18.3931C14.7391 18.4453 14.6205 18.4945 14.5004 18.5405L14.0411 18.7163L13.056 22H10.944L9.95893 18.7163L9.4996 18.5405C9.37947 18.4945 9.26092 18.4453 9.14404 18.3931L8.69481 18.192L5.67561 19.8177L4.18224 18.3244L5.80796 15.3052L5.60693 14.856C5.55463 14.7391 5.50544 14.6205 5.45947 14.5004L5.28379 14.0411L2 13.056V10.944L5.28379 9.95893L5.45947 9.4996C5.50543 9.37947 5.55461 9.26095 5.60692 9.14407L5.80795 8.69484L4.18221 5.6756L5.67557 4.18223L8.6948 5.80797L9.14404 5.60693C9.26093 5.55463 9.37947 5.50544 9.4996 5.45947L9.95893 5.28379ZM15 12C15 13.6568 13.6568 15 12 15C10.3432 15 9 13.6568 9 12C9 10.3432 10.3432 9 12 9C13.6568 9 15 10.3432 15 12ZM17 12C17 14.7615 14.7615 17 12 17C9.23857 17 7 14.7615 7 12C7 9.23857 9.23857 7 12 7C14.7615 7 17 9.23857 17 12Z" fill="#6A7777"/>
</g>
<defs>
<clipPath id="clip0_1605_879">
<rect width="24" height="24" fill="white"/>
</clipPath>
</defs>
</svg>
