<svg width="40" height="40" viewBox="0 0 40 40" fill="none" xmlns="http://www.w3.org/2000/svg">
<path d="M33.5 8L31.698 32.0258C31.5403 34.13 31.4613 35.1822 30.9501 35.98C30.4998 36.6824 29.8208 37.247 29.0025 37.5996C28.073 38 26.8866 38 24.5139 38H15.486C13.1134 38 11.927 38 10.9975 37.5996C10.1791 37.247 9.50013 36.6824 9.04997 35.98C8.53866 35.1822 8.45975 34.13 8.30193 32.0258L6.5 8M2 8H38M29 8L28.3911 6.37614C27.801 4.8025 27.5058 4.01568 26.9586 3.43396C26.4753 2.92026 25.8547 2.52264 25.1536 2.27756C24.3596 2 23.4267 2 21.5606 2H18.4394C16.5733 2 15.6404 2 14.8464 2.27756C14.1453 2.52264 13.5247 2.92026 13.0414 3.43396C12.4941 4.01568 12.1991 4.8025 11.6089 6.37614L11 8M24.5 16V30M15.5 16V30" stroke="#757877" stroke-width="2" stroke-linecap="round" stroke-linejoin="round"/>
</svg>
