<svg width="256" height="256" viewBox="0 0 256 256" fill="none" xmlns="http://www.w3.org/2000/svg">
<mask id="mask0_1348_1721" style="mask-type:luminance" maskUnits="userSpaceOnUse" x="0" y="0" width="256" height="256">
<path d="M256 0H0V256H256V0Z" fill="white"/>
</mask>
<g mask="url(#mask0_1348_1721)">
<path d="M223.785 48L231.785 136H151.785V40H215.785C220.025 40 223.065 42.16 223.785 48Z" fill="#F9F0F1"/>
<path d="M199.785 200C213.065 200 223.785 210.72 223.785 224C223.785 237.28 213.065 248 199.785 248C186.505 248 175.785 237.28 175.785 224C175.785 210.72 186.505 200 199.785 200ZM63.7847 200C77.0647 200 87.7849 210.72 87.7849 224C87.7849 237.28 77.0647 248 63.7847 248C50.5047 248 39.7847 237.28 39.7847 224C39.7847 221.52 40.1847 219.04 40.9047 216.8C43.9447 207.04 52.9847 200 63.7847 200Z" fill="#7A7E83"/>
<path d="M8.426 24L20.426 96L30.986 160L40.426 216.64L40.906 216.8C43.946 207.04 52.986 200 63.786 200C77.066 200 87.7862 210.72 87.7862 224H175.785C175.785 210.72 186.505 200 199.785 200C213.065 200 223.785 210.72 223.785 224H247.785V152C247.785 144 239.785 136 231.785 136H151.786V16C151.786 11.84 147.866 8 143.786 8H23.786C13.066 8 6.18598 10.72 8.426 24Z" fill="#61BDA3"/>
<path d="M224 224C224 210.752 213.248 200 200 200C186.752 200 176 210.752 176 224C176 237.248 186.752 248 200 248C213.248 248 224 237.248 224 224ZM224 224H248V152C248 144 240 136 232 136M232 136H176M232 136L224 48C223.248 42.128 220.248 40 216 40H176M88 224C88 210.752 77.248 200 64 200C50.752 200 40 210.752 40 224C40 237.248 50.752 248 64 248C77.248 248 88 237.248 88 224ZM88 224H152V16C152 11.872 148.12 8 144 8H24C13.248 8 6.376 10.752 8.624 24L16 72M64 128H16M72 160H24M56 96H8" stroke="#241F1F" stroke-width="6" stroke-linecap="round" stroke-linejoin="round"/>
</g>
</svg>
