<svg width="24" height="24" viewBox="0 0 24 24" fill="none" xmlns="http://www.w3.org/2000/svg">
<g clip-path="url(#clip0_1565_5)">
<path d="M5.3 20.21C3.872 20.21 2.78 19.818 2.024 19.034C1.268 18.236 0.89 17.158 0.89 15.8V4.67H2.78V15.8C2.78 16.64 2.983 17.305 3.389 17.795C3.809 18.285 4.446 18.53 5.3 18.53C6.14 18.53 6.77 18.285 7.19 17.795C7.61 17.305 7.82 16.64 7.82 15.8V4.67H9.71V15.8C9.71 17.172 9.332 18.25 8.576 19.034C7.834 19.818 6.742 20.21 5.3 20.21ZM13.5868 20V4.649H22.6168V6.371H15.4348V11.474H22.0708V13.196H15.4768V20H13.5868Z" fill="#6A7777"/>
</g>
<defs>
<clipPath id="clip0_1565_5">
<rect width="24" height="24" fill="white"/>
</clipPath>
</defs>
</svg>
