<svg width="456" height="456" viewBox="0 0 456 456" fill="none" xmlns="http://www.w3.org/2000/svg">
<mask id="mask0_1648_167" maskUnits="userSpaceOnUse" x="145" y="146" width="165" height="165">
<path d="M310 146H145V311H310V146Z" fill="white"/>
</mask>
<g mask="url(#mask0_1648_167)">
<path d="M289.236 176.938L294.392 233.656H242.83V171.781H284.08C286.813 171.781 288.772 173.173 289.236 176.938Z" fill="#F9F0F1"/>
<path d="M273.768 274.906C282.327 274.906 289.236 281.816 289.236 290.375C289.236 298.934 282.327 305.844 273.768 305.844C265.208 305.844 258.299 298.934 258.299 290.375C258.299 281.816 265.208 274.906 273.768 274.906ZM186.111 274.906C194.671 274.906 201.58 281.816 201.58 290.375C201.58 298.934 194.671 305.844 186.111 305.844C177.552 305.844 170.642 298.934 170.642 290.375C170.642 288.777 170.9 287.178 171.364 285.734C173.324 279.444 179.15 274.906 186.111 274.906Z" fill="#7A7E83"/>
<path d="M150.431 161.469L158.165 207.875L164.972 249.125L171.056 285.631L171.365 285.734C173.325 279.444 179.151 274.906 186.112 274.906C194.672 274.906 201.581 281.816 201.581 290.375H258.299C258.299 281.816 265.209 274.906 273.768 274.906C282.327 274.906 289.237 281.816 289.237 290.375H304.705V243.969C304.705 238.812 299.549 233.656 294.393 233.656H242.831V156.312C242.831 153.631 240.304 151.156 237.675 151.156H160.331C153.422 151.156 148.987 152.909 150.431 161.469Z" fill="#61BDA3"/>
<path d="M289.375 290.375C289.375 281.836 282.445 274.906 273.906 274.906C265.367 274.906 258.438 281.836 258.438 290.375C258.438 298.914 265.367 305.844 273.906 305.844C282.445 305.844 289.375 298.914 289.375 290.375ZM289.375 290.375H304.844V243.969C304.844 238.812 299.688 233.656 294.531 233.656M294.531 233.656H258.438M294.531 233.656L289.375 176.938C288.89 173.153 286.957 171.781 284.219 171.781H258.438M201.719 290.375C201.719 281.836 194.789 274.906 186.25 274.906C177.711 274.906 170.781 281.836 170.781 290.375C170.781 298.914 177.711 305.844 186.25 305.844C194.789 305.844 201.719 298.914 201.719 290.375ZM201.719 290.375H242.969V156.312C242.969 153.652 240.468 151.156 237.812 151.156H160.469C153.539 151.156 149.11 152.93 150.558 161.469L155.312 192.406M186.25 228.5H155.312M191.406 249.125H160.469M181.094 207.875H150.156" stroke="#241F1F" stroke-width="6" stroke-linecap="round" stroke-linejoin="round"/>
</g>
</svg>
