<svg width="456" height="456" viewBox="0 0 456 456" fill="none" xmlns="http://www.w3.org/2000/svg">
<path d="M112.72 228.24C110.613 228.24 108.667 227.893 106.88 227.2C105.093 226.48 103.547 225.48 102.24 224.2C100.933 222.92 99.9067 221.413 99.16 219.68C98.44 217.947 98.08 216.053 98.08 214C98.08 211.947 98.44 210.053 99.16 208.32C99.9067 206.587 100.933 205.08 102.24 203.8C103.573 202.52 105.133 201.533 106.92 200.84C108.707 200.12 110.653 199.76 112.76 199.76C114.787 199.76 116.693 200.107 118.48 200.8C120.267 201.467 121.773 202.48 123 203.84L121.12 205.72C119.973 204.547 118.707 203.707 117.32 203.2C115.933 202.667 114.44 202.4 112.84 202.4C111.16 202.4 109.6 202.693 108.16 203.28C106.72 203.84 105.467 204.653 104.4 205.72C103.333 206.76 102.493 207.987 101.88 209.4C101.293 210.787 101 212.32 101 214C101 215.68 101.293 217.227 101.88 218.64C102.493 220.027 103.333 221.253 104.4 222.32C105.467 223.36 106.72 224.173 108.16 224.76C109.6 225.32 111.16 225.6 112.84 225.6C114.44 225.6 115.933 225.333 117.32 224.8C118.707 224.267 119.973 223.413 121.12 222.24L123 224.12C121.773 225.48 120.267 226.507 118.48 227.2C116.693 227.893 114.773 228.24 112.72 228.24ZM141.558 228V223.36L141.438 222.6V214.84C141.438 213.053 140.931 211.68 139.918 210.72C138.931 209.76 137.451 209.28 135.478 209.28C134.118 209.28 132.824 209.507 131.598 209.96C130.371 210.413 129.331 211.013 128.478 211.76L127.198 209.64C128.264 208.733 129.544 208.04 131.038 207.56C132.531 207.053 134.104 206.8 135.758 206.8C138.478 206.8 140.571 207.48 142.038 208.84C143.531 210.173 144.278 212.213 144.278 214.96V228H141.558ZM134.318 228.2C132.744 228.2 131.371 227.947 130.198 227.44C129.051 226.907 128.171 226.187 127.558 225.28C126.944 224.347 126.638 223.28 126.638 222.08C126.638 220.987 126.891 220 127.398 219.12C127.931 218.213 128.784 217.493 129.958 216.96C131.158 216.4 132.758 216.12 134.758 216.12H141.998V218.24H134.838C132.811 218.24 131.398 218.6 130.598 219.32C129.824 220.04 129.438 220.933 129.438 222C129.438 223.2 129.904 224.16 130.838 224.88C131.771 225.6 133.078 225.96 134.758 225.96C136.358 225.96 137.731 225.6 138.878 224.88C140.051 224.133 140.904 223.067 141.438 221.68L142.078 223.64C141.544 225.027 140.611 226.133 139.278 226.96C137.971 227.787 136.318 228.2 134.318 228.2ZM151.991 228V207H154.711V212.72L154.431 211.72C155.018 210.12 156.005 208.907 157.391 208.08C158.778 207.227 160.498 206.8 162.551 206.8V209.56C162.445 209.56 162.338 209.56 162.231 209.56C162.125 209.533 162.018 209.52 161.911 209.52C159.698 209.52 157.965 210.2 156.711 211.56C155.458 212.893 154.831 214.8 154.831 217.28V228H151.991ZM167.733 228V207H170.453V212.72L170.173 211.72C170.76 210.12 171.747 208.907 173.133 208.08C174.52 207.227 176.24 206.8 178.293 206.8V209.56C178.187 209.56 178.08 209.56 177.973 209.56C177.867 209.533 177.76 209.52 177.653 209.52C175.44 209.52 173.707 210.2 172.453 211.56C171.2 212.893 170.573 214.8 170.573 217.28V228H167.733ZM192.2 228.2C190.014 228.2 188.094 227.747 186.44 226.84C184.787 225.907 183.494 224.64 182.56 223.04C181.627 221.413 181.16 219.56 181.16 217.48C181.16 215.4 181.6 213.56 182.48 211.96C183.387 210.36 184.614 209.107 186.16 208.2C187.734 207.267 189.494 206.8 191.44 206.8C193.414 206.8 195.16 207.253 196.68 208.16C198.227 209.04 199.44 210.293 200.32 211.92C201.2 213.52 201.64 215.373 201.64 217.48C201.64 217.613 201.627 217.76 201.6 217.92C201.6 218.053 201.6 218.2 201.6 218.36H183.32V216.24H200.08L198.96 217.08C198.96 215.56 198.627 214.213 197.96 213.04C197.32 211.84 196.44 210.907 195.32 210.24C194.2 209.573 192.907 209.24 191.44 209.24C190 209.24 188.707 209.573 187.56 210.24C186.414 210.907 185.52 211.84 184.88 213.04C184.24 214.24 183.92 215.613 183.92 217.16V217.6C183.92 219.2 184.267 220.613 184.96 221.84C185.68 223.04 186.667 223.987 187.92 224.68C189.2 225.347 190.654 225.68 192.28 225.68C193.56 225.68 194.747 225.453 195.84 225C196.96 224.547 197.92 223.853 198.72 222.92L200.32 224.76C199.387 225.88 198.214 226.733 196.8 227.32C195.414 227.907 193.88 228.2 192.2 228.2ZM216.381 235.96C214.461 235.96 212.621 235.68 210.861 235.12C209.101 234.56 207.674 233.76 206.581 232.72L208.021 230.56C209.008 231.44 210.221 232.133 211.661 232.64C213.128 233.173 214.674 233.44 216.301 233.44C218.968 233.44 220.928 232.813 222.181 231.56C223.434 230.333 224.061 228.413 224.061 225.8V220.56L224.461 216.96L224.181 213.36V207H226.901V225.44C226.901 229.067 226.008 231.72 224.221 233.4C222.461 235.107 219.848 235.96 216.381 235.96ZM215.861 227.2C213.861 227.2 212.061 226.773 210.461 225.92C208.861 225.04 207.594 223.827 206.661 222.28C205.754 220.733 205.301 218.96 205.301 216.96C205.301 214.96 205.754 213.2 206.661 211.68C207.594 210.133 208.861 208.933 210.461 208.08C212.061 207.227 213.861 206.8 215.861 206.8C217.728 206.8 219.408 207.187 220.901 207.96C222.394 208.733 223.581 209.88 224.461 211.4C225.341 212.92 225.781 214.773 225.781 216.96C225.781 219.147 225.341 221 224.461 222.52C223.581 224.04 222.394 225.2 220.901 226C219.408 226.8 217.728 227.2 215.861 227.2ZM216.141 224.68C217.688 224.68 219.061 224.36 220.261 223.72C221.461 223.053 222.408 222.147 223.101 221C223.794 219.827 224.141 218.48 224.141 216.96C224.141 215.44 223.794 214.107 223.101 212.96C222.408 211.813 221.461 210.92 220.261 210.28C219.061 209.613 217.688 209.28 216.141 209.28C214.621 209.28 213.248 209.613 212.021 210.28C210.821 210.92 209.874 211.813 209.181 212.96C208.514 214.107 208.181 215.44 208.181 216.96C208.181 218.48 208.514 219.827 209.181 221C209.874 222.147 210.821 223.053 212.021 223.72C213.248 224.36 214.621 224.68 216.141 224.68ZM247.964 228V223.36L247.844 222.6V214.84C247.844 213.053 247.337 211.68 246.324 210.72C245.337 209.76 243.857 209.28 241.884 209.28C240.524 209.28 239.23 209.507 238.004 209.96C236.777 210.413 235.737 211.013 234.884 211.76L233.604 209.64C234.67 208.733 235.95 208.04 237.444 207.56C238.937 207.053 240.51 206.8 242.164 206.8C244.884 206.8 246.977 207.48 248.444 208.84C249.937 210.173 250.684 212.213 250.684 214.96V228H247.964ZM240.724 228.2C239.15 228.2 237.777 227.947 236.604 227.44C235.457 226.907 234.577 226.187 233.964 225.28C233.35 224.347 233.044 223.28 233.044 222.08C233.044 220.987 233.297 220 233.804 219.12C234.337 218.213 235.19 217.493 236.364 216.96C237.564 216.4 239.164 216.12 241.164 216.12H248.404V218.24H241.244C239.217 218.24 237.804 218.6 237.004 219.32C236.23 220.04 235.844 220.933 235.844 222C235.844 223.2 236.31 224.16 237.244 224.88C238.177 225.6 239.484 225.96 241.164 225.96C242.764 225.96 244.137 225.6 245.284 224.88C246.457 224.133 247.31 223.067 247.844 221.68L248.484 223.64C247.95 225.027 247.017 226.133 245.684 226.96C244.377 227.787 242.724 228.2 240.724 228.2ZM269.118 206.8C270.824 206.8 272.318 207.133 273.598 207.8C274.904 208.44 275.918 209.427 276.638 210.76C277.384 212.093 277.758 213.773 277.758 215.8V228H274.918V216.08C274.918 213.867 274.358 212.2 273.238 211.08C272.144 209.933 270.598 209.36 268.598 209.36C267.104 209.36 265.798 209.667 264.678 210.28C263.584 210.867 262.731 211.733 262.118 212.88C261.531 214 261.238 215.36 261.238 216.96V228H258.398V207H261.118V212.76L260.678 211.68C261.344 210.16 262.411 208.973 263.878 208.12C265.344 207.24 267.091 206.8 269.118 206.8ZM293.789 228.2C291.789 228.2 289.989 227.747 288.389 226.84C286.815 225.933 285.575 224.68 284.669 223.08C283.762 221.453 283.309 219.587 283.309 217.48C283.309 215.347 283.762 213.48 284.669 211.88C285.575 210.28 286.815 209.04 288.389 208.16C289.989 207.253 291.789 206.8 293.789 206.8C295.629 206.8 297.269 207.213 298.709 208.04C300.175 208.867 301.335 210.08 302.189 211.68C303.069 213.253 303.509 215.187 303.509 217.48C303.509 219.747 303.082 221.68 302.229 223.28C301.375 224.88 300.215 226.107 298.749 226.96C297.309 227.787 295.655 228.2 293.789 228.2ZM293.989 225.68C295.482 225.68 296.815 225.347 297.989 224.68C299.189 223.987 300.122 223.027 300.789 221.8C301.482 220.547 301.829 219.107 301.829 217.48C301.829 215.827 301.482 214.387 300.789 213.16C300.122 211.933 299.189 210.987 297.989 210.32C296.815 209.627 295.482 209.28 293.989 209.28C292.522 209.28 291.202 209.627 290.029 210.32C288.855 210.987 287.922 211.933 287.229 213.16C286.535 214.387 286.189 215.827 286.189 217.48C286.189 219.107 286.535 220.547 287.229 221.8C287.922 223.027 288.855 223.987 290.029 224.68C291.202 225.347 292.522 225.68 293.989 225.68ZM301.909 228V221.68L302.189 217.44L301.789 213.2V198.32H304.629V228H301.909ZM321.098 228.2C319.071 228.2 317.245 227.747 315.618 226.84C314.018 225.907 312.751 224.64 311.818 223.04C310.885 221.413 310.418 219.56 310.418 217.48C310.418 215.373 310.885 213.52 311.818 211.92C312.751 210.32 314.018 209.067 315.618 208.16C317.218 207.253 319.045 206.8 321.098 206.8C323.178 206.8 325.018 207.253 326.618 208.16C328.245 209.067 329.511 210.32 330.418 211.92C331.351 213.52 331.818 215.373 331.818 217.48C331.818 219.56 331.351 221.413 330.418 223.04C329.511 224.64 328.245 225.907 326.618 226.84C324.991 227.747 323.151 228.2 321.098 228.2ZM321.098 225.68C322.618 225.68 323.965 225.347 325.138 224.68C326.311 223.987 327.231 223.027 327.898 221.8C328.591 220.547 328.938 219.107 328.938 217.48C328.938 215.827 328.591 214.387 327.898 213.16C327.231 211.933 326.311 210.987 325.138 210.32C323.965 209.627 322.631 209.28 321.138 209.28C319.645 209.28 318.311 209.627 317.138 210.32C315.965 210.987 315.031 211.933 314.338 213.16C313.645 214.387 313.298 215.827 313.298 217.48C313.298 219.107 313.645 220.547 314.338 221.8C315.031 223.027 315.965 223.987 317.138 224.68C318.311 225.347 319.631 225.68 321.098 225.68ZM337.31 228.2C336.724 228.2 336.217 227.987 335.79 227.56C335.39 227.133 335.19 226.613 335.19 226C335.19 225.36 335.39 224.84 335.79 224.44C336.217 224.04 336.724 223.84 337.31 223.84C337.897 223.84 338.39 224.04 338.79 224.44C339.217 224.84 339.43 225.36 339.43 226C339.43 226.613 339.217 227.133 338.79 227.56C338.39 227.987 337.897 228.2 337.31 228.2ZM345.787 228.2C345.2 228.2 344.694 227.987 344.267 227.56C343.867 227.133 343.667 226.613 343.667 226C343.667 225.36 343.867 224.84 344.267 224.44C344.694 224.04 345.2 223.84 345.787 223.84C346.374 223.84 346.867 224.04 347.267 224.44C347.694 224.84 347.907 225.36 347.907 226C347.907 226.613 347.694 227.133 347.267 227.56C346.867 227.987 346.374 228.2 345.787 228.2ZM354.263 228.2C353.677 228.2 353.17 227.987 352.743 227.56C352.343 227.133 352.143 226.613 352.143 226C352.143 225.36 352.343 224.84 352.743 224.44C353.17 224.04 353.677 223.84 354.263 223.84C354.85 223.84 355.343 224.04 355.743 224.44C356.17 224.84 356.383 225.36 356.383 226C356.383 226.613 356.17 227.133 355.743 227.56C355.343 227.987 354.85 228.2 354.263 228.2Z" fill="white"/>
</svg>
