<svg width="456" height="456" viewBox="0 0 456 456" fill="none" xmlns="http://www.w3.org/2000/svg">
<rect width="456" height="456" fill="#080E2C"/>
<mask id="mask0_1709_202" style="mask-type:luminance" maskUnits="userSpaceOnUse" x="105" y="105" width="247" height="247">
<path d="M352 105H105V352H352V105Z" fill="white"/>
</mask>
<g mask="url(#mask0_1709_202)">
<path d="M278.54 186.047L282.749 232.35H240.655V181.838H274.33C276.561 181.838 278.161 182.974 278.54 186.047Z" fill="#F9F0F1"/>
<path d="M265.912 266.025C272.899 266.025 278.54 271.666 278.54 278.653C278.54 285.641 272.899 291.281 265.912 291.281C258.924 291.281 253.284 285.641 253.284 278.653C253.284 271.666 258.924 266.025 265.912 266.025ZM194.352 266.025C201.34 266.025 206.98 271.666 206.98 278.653C206.98 285.641 201.34 291.281 194.352 291.281C187.365 291.281 181.724 285.641 181.724 278.653C181.724 277.348 181.935 276.043 182.313 274.865C183.913 269.729 188.67 266.025 194.352 266.025Z" fill="#7A7E83"/>
<path d="M165.224 173.419L171.538 211.303L177.095 244.978L182.062 274.78L182.314 274.865C183.914 269.729 188.67 266.025 194.353 266.025C201.341 266.025 206.981 271.666 206.981 278.653H253.284C253.284 271.666 258.925 266.025 265.912 266.025C272.9 266.025 278.54 271.666 278.54 278.653H291.168V240.769C291.168 236.559 286.959 232.35 282.75 232.35H240.656V169.209C240.656 167.021 238.594 165 236.447 165H173.306C167.666 165 164.046 166.431 165.224 173.419Z" fill="#61BDA3"/>
</g>
<path d="M153.66 288.21C152.98 288.21 152.4 287.98 151.92 287.52C151.44 287.04 151.2 286.44 151.2 285.72C151.2 284.96 151.44 284.36 151.92 283.92C152.4 283.46 152.98 283.23 153.66 283.23C154.34 283.23 154.92 283.46 155.4 283.92C155.88 284.36 156.12 284.96 156.12 285.72C156.12 286.44 155.88 287.04 155.4 287.52C154.92 287.98 154.34 288.21 153.66 288.21ZM160.984 288.21C160.304 288.21 159.724 287.98 159.244 287.52C158.764 287.04 158.524 286.44 158.524 285.72C158.524 284.96 158.764 284.36 159.244 283.92C159.724 283.46 160.304 283.23 160.984 283.23C161.664 283.23 162.244 283.46 162.724 283.92C163.204 284.36 163.444 284.96 163.444 285.72C163.444 286.44 163.204 287.04 162.724 287.52C162.244 287.98 161.664 288.21 160.984 288.21ZM168.308 288.21C167.628 288.21 167.048 287.98 166.568 287.52C166.088 287.04 165.848 286.44 165.848 285.72C165.848 284.96 166.088 284.36 166.568 283.92C167.048 283.46 167.628 283.23 168.308 283.23C168.988 283.23 169.568 283.46 170.048 283.92C170.528 284.36 170.768 284.96 170.768 285.72C170.768 286.44 170.528 287.04 170.048 287.52C169.568 287.98 168.988 288.21 168.308 288.21Z" fill="white"/>
</svg>
